<?xml version="1.0" encoding="UTF-8"?>
<svg width="60px" height="97px" viewBox="0 0 60 97" version="1.1" xmlns="http://www.w3.org/2000/svg" xmlns:xlink="http://www.w3.org/1999/xlink">
    <!-- Generator: sketchtool 63.1 (101010) - https://sketch.com -->
    <title>71F35204-4FDB-4F68-A281-0E4ACDEDCA1D</title>
    <desc>Created with sketchtool.</desc>
    <g id="Desktop" stroke="none" stroke-width="1" fill="none" fill-rule="evenodd">
        <g id="01-Home" transform="translate(-690.000000, -3243.000000)" fill="#000000" fill-rule="nonzero">
            <g id="Logo_B" transform="translate(690.000000, 3243.000000)">
                <g id="Group" transform="translate(0.000000, 15.000000)">
                    <path d="M17.1566328,12.6655615 L29.3685859,12.6655615 C32.3390609,12.6655615 36.2569097,12.6655615 38.2800111,13.8942188 C40.4986992,15.2145669 42.2406445,17.616867 42.2406445,20.92385 C42.2406445,24.5059055 40.3581212,27.1955035 37.240956,28.4669499 L37.240956,28.5647534 C41.3910642,29.4144219 43.652537,32.5257978 43.652537,36.6763365 C43.652537,41.6276419 40.1136377,46.3466639 33.4209006,46.3466639 L17.1566328,46.3466639 L17.1566328,12.6655615 Z M21.6367937,27.140489 L30.6032278,27.140489 C35.6945976,27.140489 37.7727077,25.3005595 37.7727077,21.761293 C37.7727077,17.0911728 34.4721799,16.4309988 30.6032278,16.4309988 L21.6367937,16.4309988 L21.6367937,27.140489 Z M21.6367937,42.5628885 L32.8647006,42.5628885 C36.7275406,42.5628885 39.1846002,40.2033775 39.1846002,36.5296312 C39.1846002,32.1406962 35.6457009,30.9181517 31.8745422,30.9181517 L21.6367937,30.9181517 L21.6367937,42.5628885 Z" id="Shape"></path>
                    <path d="M55.1127032,29.5122254 C55.1127032,43.6570659 43.6464249,55.1245338 29.4969397,55.1245338 C15.3535666,55.1245338 3.88728837,43.6570659 3.88728837,29.5122254 C3.88728837,15.367385 15.3535666,3.89991712 29.4969397,3.89991712 C43.6464249,3.90602984 55.1127032,15.367385 55.1127032,29.5122254 Z M29.5030518,0 C13.2082235,0 0,13.2034811 0,29.5 C0,45.7904061 13.2082235,59 29.4969397,59 C45.791768,59 59,45.7904061 59,29.5 C59.0061036,13.2034811 45.7978801,0 29.5030518,0 Z" id="Shape"></path>
                </g>
                <g id="Group" transform="translate(1.000000, 74.000000)">
                    <rect id="Rectangle" x="-6.4172343e-15" y="6.0412758" width="58" height="3.9587242"></rect>
                    <path d="M56.1876882,1.67604753 C56.2599398,1.67604753 56.3261705,1.66979362 56.3924011,1.66979362 C56.4526108,1.66353971 56.5128205,1.65103189 56.5609883,1.63227017 C56.615177,1.60725453 56.6513028,1.56973108 56.6814077,1.52595372 C56.7115125,1.47592245 56.7235544,1.41338336 56.7235544,1.33208255 C56.7235544,1.26328956 56.7115125,1.20075047 56.6874286,1.16322702 C56.6633448,1.11944966 56.6272189,1.08818011 56.5850721,1.06941839 C56.5429254,1.04440275 56.5007786,1.03189493 56.4405689,1.01938712 C56.3863802,1.01313321 56.3382124,1.01313321 56.2780027,1.01313321 L55.8625558,1.01313321 L55.8625558,1.68230144 L56.1876882,1.68230144 L56.1876882,1.67604753 Z M56.3261705,0.744215134 C56.5670092,0.744215134 56.7416174,0.794246404 56.8620367,0.894308943 C56.9764352,0.994371482 57.0366449,1.14446529 57.0366449,1.35084428 C57.0366449,1.54471545 56.9824561,1.67604753 56.8861206,1.76985616 C56.7837641,1.85741088 56.6573238,1.90744215 56.5007786,1.92620388 L57.0787917,2.85178236 L56.7416174,2.85178236 L56.1876882,1.9449656 L55.8565348,1.9449656 L55.8565348,2.85178236 L55.5374234,2.85178236 L55.5374234,0.750469043 L56.3261705,0.750469043 L56.3261705,0.744215134 Z M54.9052216,2.39524703 C54.9714523,2.58286429 55.0738088,2.75171982 55.2062701,2.88930582 C55.3327105,3.02689181 55.4832347,3.13320826 55.6578428,3.21450907 C55.82643,3.28955597 56.019101,3.32707942 56.217793,3.32707942 C56.422506,3.32707942 56.609156,3.28955597 56.7777432,3.21450907 C56.9523513,3.13320826 57.1028755,3.02689181 57.2293159,2.88930582 C57.3557563,2.75171982 57.4581127,2.5891182 57.5243434,2.39524703 C57.596595,2.20762977 57.6387418,2.00750469 57.6387418,1.78861789 C57.6387418,1.56973108 57.602616,1.369606 57.5243434,1.18198874 C57.4520918,0.994371482 57.3497353,0.831769856 57.2293159,0.694183865 C57.0968546,0.556597874 56.9463303,0.450281426 56.7777432,0.375234522 C56.609156,0.300187617 56.416485,0.256410256 56.217793,0.256410256 C56.019101,0.256410256 55.82643,0.300187617 55.6578428,0.375234522 C55.4832347,0.456535335 55.3266895,0.562851782 55.2062701,0.694183865 C55.0738088,0.831769856 54.9774733,0.994371482 54.9052216,1.18198874 C54.83297,1.369606 54.7968442,1.56347717 54.7968442,1.78861789 C54.7908232,2.00750469 54.826949,2.21388368 54.9052216,2.39524703 M54.6162151,1.0756723 C54.7065296,0.856785491 54.83297,0.675422139 54.9895152,0.512820513 C55.1460604,0.350218887 55.3327105,0.231394622 55.5434444,0.137585991 C55.7541783,0.0437773609 55.9829752,0 56.211772,0 C56.4526108,0 56.6753867,0.0437773609 56.8921416,0.137585991 C57.0968546,0.231394622 57.2835046,0.350218887 57.4340289,0.512820513 C57.5905741,0.675422139 57.7230354,0.8630394 57.807329,1.0756723 C57.9036645,1.2945591 57.9458113,1.53220763 57.9458113,1.78861789 C57.9458113,2.04502814 57.9036645,2.28267667 57.807329,2.50156348 C57.7170144,2.72670419 57.5905741,2.91432145 57.4340289,3.07692308 C57.2774836,3.24577861 57.0968546,3.36460288 56.8921416,3.45841151 C56.6753867,3.54596623 56.4526108,3.58974359 56.211772,3.58974359 C55.9769542,3.58974359 55.7541783,3.54596623 55.5434444,3.45841151 C55.3327105,3.36460288 55.1460604,3.24577861 54.9895152,3.07692308 C54.83297,2.91432145 54.7065296,2.72670419 54.6162151,2.50156348 C54.5198796,2.28267667 54.4837538,2.04502814 54.4837538,1.78861789 C54.4777328,1.53846154 54.5198796,1.30081301 54.6162151,1.0756723" id="Shape"></path>
                </g>
                <g id="Group" transform="translate(1.000000, 0.000000)">
                    <polygon id="Path" points="7.73410524 0 7.73410524 1.91392286 2.27509563 1.91392286 2.27509563 4.1335842 7.28884524 4.1335842 7.28884524 5.90686736 2.27509563 5.90686736 2.27509563 8.44449671 7.84999483 8.44449671 7.84999483 10.3645343 6.50088205e-15 10.3645343 6.50088205e-15 0"></polygon>
                    <path d="M11.0522072,2.85559737 L11.0522072,3.87064911 L11.0827044,3.87064911 C11.3510803,3.48541863 11.6804507,3.18579492 12.0586168,2.97177799 C12.4428822,2.75776105 12.8759433,2.65380997 13.369999,2.65380997 C13.8396568,2.65380997 14.2727179,2.74553151 14.6630828,2.9289746 C15.0534477,3.11241769 15.3523209,3.43650047 15.5536028,3.90122295 C15.7731831,3.5710254 16.0781557,3.28363123 16.4563217,3.02681091 C16.8405872,2.77610536 17.2919467,2.6476952 17.8104001,2.6476952 C18.2068645,2.6476952 18.5728316,2.69661336 18.9083015,2.79444967 C19.2437713,2.89228598 19.536545,3.04515522 19.7805231,3.25917215 C20.0245012,3.47318909 20.2074848,3.74835372 20.3477721,4.09078081 C20.4819601,4.4332079 20.5490541,4.84901223 20.5490541,5.33207902 L20.5490541,10.3584196 L18.4935387,10.3584196 L18.4935387,6.10253998 C18.4935387,5.85183443 18.4813398,5.61335842 18.4630415,5.39322672 C18.4447431,5.17309501 18.389848,4.97742239 18.3044557,4.81232361 C18.2190634,4.64722484 18.0909749,4.51881468 17.9201902,4.42097836 C17.7494056,4.32314205 17.5237258,4.27422389 17.2309521,4.27422389 C16.9381784,4.27422389 16.7063993,4.32925682 16.5295151,4.43932267 C16.352631,4.54938852 16.2123436,4.69614299 16.108653,4.87347131 C16.0049623,5.05079962 15.9378683,5.25870179 15.907371,5.48494826 C15.8707743,5.71119473 15.8585754,5.94355597 15.8585754,6.17591722 L15.8585754,10.3584196 L13.8030601,10.3584196 L13.8030601,6.14534337 C13.8030601,5.92521167 13.7969606,5.70507996 13.7908612,5.48494826 C13.7786623,5.26481656 13.7420655,5.06302916 13.6688721,4.87958608 C13.5956787,4.69614299 13.4736897,4.54938852 13.3090044,4.43932267 C13.1382198,4.32925682 12.8881423,4.27422389 12.5648713,4.27422389 C12.4672801,4.27422389 12.3391916,4.29868297 12.1806058,4.34148636 C12.0220201,4.38428975 11.8634343,4.46989652 11.7170475,4.58607714 C11.5645611,4.70837253 11.4364727,4.87958608 11.332782,5.10583255 C11.2290913,5.33207902 11.1741962,5.63170273 11.1741962,5.9985889 L11.1741962,10.3523048 L9.11868086,10.3523048 L9.11868086,2.85559737 L11.0522072,2.85559737 Z" id="Path"></path>
                    <path d="M23.8427582,2.85559737 L23.8427582,3.81561618 L23.8732555,3.81561618 C24.123333,3.41204139 24.4405045,3.11241769 24.8308694,2.9289746 C25.2151349,2.74553151 25.6420966,2.65380997 26.1056549,2.65380997 C26.6973018,2.65380997 27.2035563,2.76387582 27.6244185,2.9901223 C28.0513801,3.210254 28.3990489,3.5098777 28.6796237,3.87676388 C28.9601985,4.24365005 29.1675799,4.67168391 29.3017678,5.16086548 C29.4359558,5.65004704 29.5030497,6.15757291 29.5030497,6.69567262 C29.5030497,7.19708373 29.4359558,7.68015052 29.3017678,8.144873 C29.1675799,8.60959548 28.9601985,9.01928504 28.6857231,9.38005644 C28.4112478,9.74082785 28.0696785,10.0221072 27.6549157,10.2361242 C27.2462525,10.4501411 26.7643957,10.5540922 26.2154451,10.5540922 C25.7518867,10.5540922 25.324925,10.4623706 24.9345601,10.2728128 C24.5441952,10.0832549 24.2209242,9.80809031 23.9708467,9.44120414 L23.9403494,9.44120414 L23.9403494,13 L21.8848341,13 L21.8848341,2.85559737 L23.8427582,2.85559737 Z M26.5143182,8.81138288 C26.7399979,8.67685795 26.9229815,8.49952963 27.0632689,8.27939793 C27.2035563,8.05926623 27.3011475,7.80856068 27.362142,7.51505174 C27.4170371,7.22765757 27.4475344,6.92803387 27.4475344,6.62841016 C27.4475344,6.32878645 27.4170371,6.03527752 27.3499431,5.74176858 C27.2889486,5.44825964 27.1852579,5.19143932 27.0388711,4.96519285 C26.8924842,4.73894638 26.7095007,4.55550329 26.4838209,4.41486359 C26.2581412,4.27422389 25.9775664,4.20696143 25.648196,4.20696143 C25.3127261,4.20696143 25.0260519,4.28033866 24.8003722,4.41486359 C24.5746924,4.55550329 24.3917089,4.73894638 24.2514215,4.95907808 C24.1111341,5.17920978 24.0135429,5.4360301 23.9525483,5.72953904 C23.8915538,6.01693321 23.867156,6.32267168 23.867156,6.62841016 C23.867156,6.92803387 23.8976533,7.2215428 23.9586478,7.51505174 C24.0196423,7.80244591 24.123333,8.05926623 24.2636204,8.27939793 C24.4039078,8.49952963 24.5868913,8.67685795 24.8186705,8.81138288 C25.0504497,8.94590781 25.3310245,9.01317027 25.6603949,9.01317027 C26.0019642,9.01317027 26.2886385,8.94590781 26.5143182,8.81138288" id="Shape"></path>
                    <path d="M32.5161791,2.85559737 L32.5161791,4.24976482 L32.5466763,4.24976482 C32.6442675,4.01740357 32.772356,3.80338664 32.9370412,3.60159925 C33.1017265,3.40592662 33.2908095,3.23471308 33.5042903,3.09407338 C33.7177711,2.95343368 33.9434508,2.84336783 34.1874289,2.76999059 C34.431407,2.69049859 34.6814845,2.65380997 34.9376615,2.65380997 C35.0718495,2.65380997 35.2243358,2.67826905 35.389021,2.72718721 L35.389021,4.64111007 C35.2914298,4.62276576 35.1755402,4.60442145 35.0413522,4.59219191 C34.9071643,4.57996237 34.7790758,4.56773283 34.6509873,4.56773283 C34.2728213,4.56773283 33.9556497,4.62888053 33.6933733,4.75729069 C33.4310969,4.88570085 33.2237155,5.05691439 33.0651297,5.27093133 C32.906544,5.49106303 32.7906544,5.74176858 32.7235604,6.03527752 C32.6564665,6.32267168 32.6198697,6.6406397 32.6198697,6.97695202 L32.6198697,10.3584196 L30.5582549,10.3584196 L30.5582549,2.85559737 L32.5161791,2.85559737 Z" id="Path"></path>
                    <path d="M38.1337744,8.56067733 C38.4448465,8.86030103 38.884007,9.01317027 39.463455,9.01317027 C39.8782177,9.01317027 40.2380854,8.90921919 40.5369585,8.70131703 C40.8358317,8.49341486 41.0188153,8.27328316 41.0859092,8.04092192 L42.8974465,8.04092192 C42.6046728,8.93979304 42.1655123,9.58795861 41.5677659,9.97318909 C40.9700196,10.3584196 40.2441848,10.5540922 39.396361,10.5540922 C38.8047142,10.5540922 38.2740618,10.4623706 37.804404,10.2728128 C37.3286467,10.0832549 36.9321824,9.81420508 36.602812,9.46566322 C36.2734415,9.11712135 36.023364,8.70131703 35.8403804,8.21825024 C35.6634963,7.73518344 35.5720045,7.20319849 35.5720045,6.62229539 C35.5720045,6.05973659 35.6634963,5.53998119 35.8464799,5.05691439 C36.0294635,4.5738476 36.2917399,4.15804327 36.6272098,3.80338664 C36.9626796,3.44873001 37.3713429,3.17356538 37.8349013,2.96566322 C38.3045591,2.76387582 38.8230125,2.65992474 39.3902616,2.65992474 C40.030704,2.65992474 40.5857542,2.78222013 41.055412,3.03292568 C41.5311692,3.27751646 41.9154347,3.61382879 42.2204073,4.02963311 C42.5253799,4.44543744 42.7449602,4.92238946 42.8791481,5.45437441 C43.0133361,5.98635936 43.0621317,6.54280339 43.025535,7.12370649 L37.6214204,7.12370649 C37.6580172,7.77798683 37.8227024,8.26105362 38.1337744,8.56067733 M40.4576657,4.61665099 C40.2136876,4.34760113 39.8355216,4.2130762 39.3353665,4.2130762 C39.0059961,4.2130762 38.7315207,4.26810913 38.5180399,4.37817498 C38.2984596,4.48824083 38.127675,4.62888053 37.9995865,4.7939793 C37.871498,4.95907808 37.7739068,5.13029163 37.7251111,5.31373471 C37.6702161,5.4971778 37.6397188,5.66227658 37.6336194,5.80903104 L40.9761191,5.80903104 C40.8724284,5.28316087 40.7016438,4.88570085 40.4576657,4.61665099" id="Shape"></path>
                    <path d="M45.9776698,8.49952963 C46.0691616,8.65851364 46.1850512,8.79303857 46.331438,8.89087488 C46.4778249,8.99482596 46.6425101,9.0682032 46.8315931,9.11712135 C47.0206761,9.16603951 47.2158586,9.19049859 47.4171405,9.19049859 C47.5635273,9.19049859 47.7160136,9.17215428 47.8745994,9.14158043 C48.0331852,9.11100659 48.179572,9.05597366 48.3076605,8.98259643 C48.435749,8.90921919 48.5455391,8.81138288 48.6309315,8.68908749 C48.7163238,8.5667921 48.7651194,8.41392286 48.7651194,8.23047977 C48.7651194,7.91862653 48.557738,7.68626529 48.1490747,7.53339605 C47.7404115,7.38052681 47.167063,7.2215428 46.4351287,7.06867357 C46.1362556,7.0014111 45.8434819,6.9219191 45.5568076,6.83019755 C45.2701334,6.73847601 45.0200558,6.61618062 44.7943761,6.46942615 C44.5747958,6.32267168 44.3918123,6.13311383 44.2576243,5.90075259 C44.1234364,5.67450611 44.0563424,5.39322672 44.0563424,5.06302916 C44.0563424,4.57996237 44.1478342,4.18250235 44.3369172,3.87064911 C44.5260002,3.55879586 44.7760777,3.31420508 45.0810503,3.13687676 C45.3921224,2.95954845 45.7336917,2.83113829 46.1240567,2.75776105 C46.5083221,2.68438382 46.9047865,2.6476952 47.3134498,2.6476952 C47.7221131,2.6476952 48.112478,2.68438382 48.4967435,2.76387582 C48.8749095,2.84336783 49.2164789,2.97177799 49.515352,3.15522107 C49.8142252,3.33866416 50.0643027,3.58325494 50.2594852,3.88899341 C50.4546676,4.19473189 50.5766567,4.57996237 50.6132534,5.04468485 L48.6553293,5.04468485 C48.624832,4.64722484 48.4784452,4.37817498 48.2039698,4.23753528 C47.9355939,4.09689558 47.612323,4.02351834 47.2463558,4.02351834 C47.1304662,4.02351834 47.0023778,4.02963311 46.8681898,4.04797742 C46.7340019,4.06020696 46.6120128,4.09078081 46.5022227,4.13969897 C46.3924325,4.18861712 46.2948413,4.25587959 46.2216479,4.34760113 C46.142355,4.43932267 46.1057583,4.56161806 46.1057583,4.72060207 C46.1057583,4.90404516 46.1728523,5.05691439 46.3070402,5.17309501 C46.4412282,5.28927563 46.6181123,5.38099718 46.8376925,5.45437441 C47.0572728,5.52775165 47.3012509,5.59501411 47.5818257,5.65004704 C47.8624005,5.70507996 48.1490747,5.77234243 48.435749,5.83960489 C48.7346221,5.90686736 49.0273958,5.98635936 49.3140701,6.08419567 C49.6007443,6.18203198 49.8508219,6.31044214 50.0765016,6.46942615 C50.2960819,6.62841016 50.4790654,6.83019755 50.6132534,7.0625588 C50.7474413,7.30103481 50.8145353,7.59454374 50.8145353,7.94308561 C50.8145353,8.43838194 50.7169441,8.85418627 50.5156622,9.18438382 C50.3204797,9.52069614 50.0582032,9.78363123 49.7410317,9.9915334 C49.4238602,10.1933208 49.0578931,10.3400753 48.6492298,10.4195673 C48.2405665,10.505174 47.8197043,10.5418627 47.3988421,10.5418627 C46.965781,10.5418627 46.5388194,10.4990593 46.1240567,10.4134525 C45.7092939,10.3278457 45.3372273,10.1810913 45.0139564,9.97930386 C44.6906854,9.77751646 44.4223095,9.5084666 44.2149282,9.17215428 C44.0075468,8.83584196 43.8916572,8.42003763 43.8733588,7.91862653 L45.831283,7.91862653 C45.8373824,8.144873 45.886178,8.34054563 45.9776698,8.49952963" id="Path"></path>
                    <path d="M52.2967022,3.96237065 C52.510183,3.64440263 52.7785589,3.38758231 53.1079293,3.19190969 C53.4372997,2.99623706 53.8032668,2.86171214 54.2180296,2.77610536 C54.6266929,2.69661336 55.0414556,2.65380997 55.4562183,2.65380997 C55.8343844,2.65380997 56.2125504,2.67826905 56.6029153,2.73330198 C56.9871808,2.7883349 57.340949,2.89228598 57.6581205,3.04515522 C57.9752921,3.19802446 58.2375685,3.41815616 58.4388504,3.69332079 C58.6401323,3.96848542 58.743823,4.33537159 58.743823,4.78786453 L58.743823,8.69520226 C58.743823,9.03762935 58.7621214,9.35559737 58.7987181,9.66745061 C58.8353148,9.97930386 58.9024088,10.2116651 59,10.3645343 L56.9139874,10.3645343 C56.8773907,10.2483537 56.840794,10.1321731 56.8224956,10.0098777 C56.7980978,9.88758231 56.7797994,9.76528692 56.7737,9.63687676 C56.4443296,9.97318909 56.0600641,10.2116651 55.6148041,10.34619 C55.1695441,10.480715 54.7181846,10.5479774 54.2546263,10.5479774 C53.8947586,10.5479774 53.5653882,10.505174 53.2543161,10.4195673 C52.9432441,10.3339605 52.6748682,10.1994356 52.443089,10.0098777 C52.2113098,9.82643462 52.0283263,9.59407338 51.9002378,9.31279398 C51.7721493,9.03151458 51.7050553,8.70131703 51.7050553,8.30997178 C51.7050553,7.88193791 51.7782487,7.53339605 51.930735,7.25823142 C52.0832213,6.98306679 52.2723044,6.76293509 52.510183,6.59783631 C52.7480616,6.43273754 53.0164375,6.31044214 53.3214101,6.22483537 C53.6263827,6.14534337 53.9313553,6.0780809 54.2424274,6.02916275 C54.5534994,5.98024459 54.858472,5.94355597 55.1573452,5.91298213 C55.4562183,5.88240828 55.7245942,5.83960489 55.9563734,5.78457197 C56.1881526,5.72953904 56.3711362,5.64393227 56.5053241,5.52775165 C56.639512,5.41768579 56.7005066,5.25258702 56.6944071,5.03857008 C56.6944071,4.81843838 56.6578104,4.64111007 56.584617,4.50658514 C56.5114236,4.37817498 56.4138323,4.27422389 56.2918433,4.20084666 C56.1698542,4.12746943 56.0295668,4.07855127 55.8709811,4.05409219 C55.7123953,4.02963311 55.5416107,4.01740357 55.3586271,4.01740357 C54.9499638,4.01740357 54.6327923,4.10301035 54.4010131,4.28033866 C54.169234,4.45155221 54.035046,4.74506115 53.9923498,5.14863594 L51.9368345,5.14863594 C51.9612323,4.68391345 52.0832213,4.28033866 52.2967022,3.96237065 M56.3589372,6.87300094 C56.2308488,6.91580433 56.0905614,6.95249294 55.9380751,6.98306679 C55.7855888,7.01364064 55.6331025,7.03809972 55.4684172,7.05644403 C55.303732,7.07478833 55.1390468,7.09924741 54.9743616,7.12982126 C54.8218753,7.16039511 54.669389,7.19708373 54.5169027,7.24600188 C54.3644164,7.29492004 54.2363279,7.3621825 54.1265378,7.44167451 C54.0167476,7.52116651 53.9252559,7.63123236 53.8581619,7.75352775 C53.7910679,7.88193791 53.7544712,8.04092192 53.7544712,8.23047977 C53.7544712,8.41392286 53.7849685,8.5667921 53.8581619,8.69520226 C53.9252559,8.82361242 54.0167476,8.92144873 54.1326372,8.99482596 C54.2485268,9.0682032 54.3827148,9.11712135 54.5413005,9.1476952 C54.6937868,9.17826905 54.8523726,9.19049859 55.0170578,9.19049859 C55.4257211,9.19049859 55.7367931,9.12323612 55.9563734,8.98871119 C56.1759537,8.85418627 56.3406389,8.68908749 56.450429,8.49952963 C56.5541197,8.30997178 56.6212137,8.12041392 56.6456115,7.9247413 C56.6700093,7.72906867 56.6822082,7.57619944 56.6822082,7.46001881 L56.6822082,6.68955786 C56.5968159,6.76904986 56.4870257,6.83019755 56.3589372,6.87300094" id="Shape"></path>
                </g>
                <g id="Group" transform="translate(1.000000, 88.000000)">
                    <path d="M5.75342748,2.48684211 C5.64395423,2.30609418 5.50407175,2.15027701 5.33986187,2.01315789 C5.17565199,1.87603878 4.98711473,1.7700831 4.78033192,1.69529086 C4.57354912,1.62049861 4.35460262,1.58310249 4.12957427,1.58310249 C3.71600866,1.58310249 3.36326152,1.66412742 3.07133285,1.83240997 C2.77940419,1.99445983 2.54829399,2.21883657 2.36583857,2.49307479 C2.18338316,2.76731302 2.05566436,3.08518006 1.9705185,3.44044321 C1.88537264,3.79570637 1.84888156,4.15720222 1.84888156,4.53739612 C1.84888156,4.89889197 1.89145449,5.24792244 1.9705185,5.59072022 C2.05566436,5.93351801 2.18338316,6.23891967 2.36583857,6.51315789 C2.54829399,6.78739612 2.77940419,7.00554017 3.07133285,7.16759003 C3.36326152,7.32963989 3.71600866,7.41689751 4.12957427,7.41689751 C4.69518606,7.41689751 5.13307906,7.24238227 5.44933512,6.88711911 C5.76559118,6.53185596 5.96021029,6.07063712 6.03319245,5.49099723 L7.82125554,5.49099723 C7.77260076,6.02700831 7.65096382,6.51315789 7.45634471,6.94944598 C7.2617256,7.38573407 7.00020616,7.7534626 6.67786826,8.05886427 C6.35553036,8.36426593 5.97845583,8.59487535 5.54664468,8.75692521 C5.11483352,8.91897507 4.64044944,9 4.12349242,9 C3.47881662,9 2.90104113,8.88781163 2.39016596,8.65720222 C1.87929079,8.4265928 1.44139779,8.11495845 1.08865065,7.7098338 C0.735903515,7.31094183 0.468302237,6.83725762 0.279764973,6.29501385 C0.0912277085,5.75277008 0,5.16689751 0,4.54362881 C0,3.90166205 0.0912277085,3.3033241 0.279764973,2.75484765 C0.468302237,2.20637119 0.735903515,1.72645429 1.08865065,1.31509695 C1.44139779,0.903739612 1.87320895,0.585872576 2.39016596,0.349030471 C2.90104113,0.118421053 3.47881662,0 4.12349242,0 C4.58571281,0 5.02360581,0.0685595568 5.43108958,0.20567867 C5.84465519,0.342797784 6.20956602,0.542243767 6.53798577,0.80401662 C6.86032368,1.06578947 7.1340068,1.3898892 7.34078961,1.77631579 C7.55365426,2.16274238 7.6874549,2.60526316 7.74219153,3.10387812 L5.95412844,3.10387812 C5.9358829,2.86080332 5.86290073,2.66135734 5.75342748,2.48684211" id="Path"></path>
                    <path d="M10.3573858,7.29847645 C10.6067416,7.54778393 10.9655706,7.67243767 11.4399546,7.67243767 C11.7744562,7.67243767 12.0663849,7.58518006 12.3096588,7.41066482 C12.5529327,7.23614958 12.698897,7.05540166 12.7536336,6.86218837 L14.2254407,6.86218837 C13.9882486,7.6101108 13.6294196,8.1398892 13.1428719,8.46398892 C12.6563241,8.78808864 12.0663849,8.94390582 11.3791362,8.94390582 C10.8986702,8.94390582 10.4668591,8.86288089 10.0837027,8.70706371 C9.70054634,8.55124654 9.37212658,8.32686981 9.11060715,8.0401662 C8.84300588,7.7534626 8.63622307,7.40443213 8.49634058,7.00554017 C8.35037625,6.6066482 8.27739408,6.16412742 8.27739408,5.67797784 C8.27739408,5.21052632 8.35037625,4.78047091 8.50242243,4.37534626 C8.64838676,3.97022161 8.86125142,3.62742382 9.13493454,3.33448753 C9.40861767,3.04155125 9.73703742,2.81094183 10.1141119,2.64265928 C10.4911865,2.47437673 10.9169158,2.38711911 11.3791362,2.38711911 C11.8960932,2.38711911 12.3461499,2.49307479 12.7293063,2.69252078 C13.1124626,2.89819945 13.4287187,3.17243767 13.6780744,3.51523546 C13.9274302,3.85803324 14.1038037,4.25692521 14.213277,4.6932133 C14.3227502,5.13573407 14.3592413,5.59695291 14.3288321,6.07686981 L9.94382022,6.07686981 C9.96814761,6.64404432 10.1080301,7.04916898 10.3573858,7.29847645 M12.2427585,4.0200831 C12.0420575,3.79570637 11.7379652,3.68351801 11.3304814,3.68351801 C11.0628801,3.68351801 10.8439336,3.72714681 10.66756,3.82063712 C10.4911865,3.91412742 10.351304,4.02631579 10.2418307,4.1634349 C10.1384393,4.30055402 10.0593753,4.44390582 10.0168024,4.59972299 C9.97422946,4.74930748 9.94990207,4.88642659 9.93773838,5.01108033 L12.6502422,5.01108033 C12.5833419,4.57479224 12.4434594,4.24445983 12.2427585,4.0200831" id="Shape"></path>
                    <path d="M16.4453149,2.56163435 L16.4453149,3.72091413 L16.4696423,3.72091413 C16.5487063,3.52770083 16.6520977,3.34695291 16.7858984,3.18490305 C16.919699,3.02285319 17.0717452,2.87950139 17.2420369,2.76108033 C17.4123286,2.64889197 17.6008659,2.55540166 17.795485,2.49307479 C17.9901041,2.43074792 18.1968869,2.39958449 18.4036697,2.39958449 C18.513143,2.39958449 18.6347799,2.41828255 18.7685806,2.46191136 L18.7685806,4.05124654 C18.6895165,4.03878116 18.5982888,4.0200831 18.4888156,4.00761773 C18.3793423,3.99515235 18.2698691,3.98891967 18.1725595,3.98891967 C17.8684672,3.98891967 17.6069477,4.03878116 17.3940831,4.14473684 C17.1812184,4.25069252 17.0109267,4.39404432 16.8832079,4.57479224 C16.7554891,4.75554017 16.6642614,4.96745152 16.6095248,5.20429363 C16.5547882,5.44736842 16.5243789,5.70290859 16.5243789,5.98961219 L16.5243789,8.79432133 L14.8579528,8.79432133 L14.8579528,2.56786704 L16.4453149,2.56786704 L16.4453149,2.56163435 Z" id="Path"></path>
                    <path d="M23.1171013,2.56163435 L23.1171013,3.70844875 L21.89465,3.70844875 L21.89465,6.79362881 C21.89465,7.08033241 21.9433048,7.27354571 22.0345325,7.3732687 C22.1257602,7.466759 22.3142975,7.5166205 22.6001443,7.5166205 C22.691372,7.5166205 22.7825997,7.51038781 22.8677456,7.50415512 C22.9528915,7.49792244 23.0380373,7.48545706 23.1171013,7.466759 L23.1171013,8.79432133 C22.9772188,8.81925208 22.8190908,8.83171745 22.6487991,8.84418283 C22.4785074,8.8566482 22.3082156,8.8566482 22.1440058,8.8566482 C21.8824863,8.8566482 21.6392125,8.83795014 21.4081023,8.80055402 C21.1769921,8.76315789 20.9702093,8.69459834 20.7938357,8.58864266 C20.6174621,8.48268698 20.4775796,8.33310249 20.3741882,8.1398892 C20.2707968,7.9466759 20.222142,7.69113573 20.222142,7.37950139 L20.222142,3.70844875 L19.2125554,3.70844875 L19.2125554,2.56163435 L20.222142,2.56163435 L20.222142,0.691828255 L21.8885682,0.691828255 L21.8885682,2.56163435 L23.1171013,2.56163435 Z" id="Path"></path>
                    <path d="M24.0780332,0.186980609 L25.7444593,0.186980609 L25.7444593,1.59556787 L24.0780332,1.59556787 L24.0780332,0.186980609 Z M25.7444593,8.78808864 L24.0780332,8.78808864 L24.0780332,2.56163435 L25.7444593,2.56163435 L25.7444593,8.78808864 Z" id="Shape"></path>
                    <path d="M26.4621173,3.70844875 L26.4621173,2.56163435 L27.4595403,2.56163435 L27.4595403,2.08171745 C27.4595403,1.52700831 27.629832,1.07202216 27.9643336,0.72299169 C28.2988352,0.367728532 28.8097103,0.193213296 29.4908772,0.193213296 C29.6368416,0.193213296 29.7888877,0.199445983 29.9348521,0.211911357 C30.0808164,0.224376731 30.2267807,0.236842105 30.3727451,0.243074792 L30.3727451,1.52077562 C30.178126,1.49584488 29.9713432,1.4833795 29.7584785,1.4833795 C29.5334502,1.4833795 29.3692403,1.53947368 29.2719307,1.64542936 C29.1746212,1.75138504 29.1259664,1.93836565 29.1259664,2.19390582 L29.1259664,2.56786704 L30.2754355,2.56786704 L30.2754355,3.71468144 L29.1259664,3.71468144 L29.1259664,8.80055402 L27.4595403,8.80055402 L27.4595403,3.71468144 L26.4621173,3.71468144 L26.4621173,3.70844875 Z" id="Path"></path>
                    <path d="M31.1025667,0.186980609 L32.7689929,0.186980609 L32.7689929,1.59556787 L31.1025667,1.59556787 L31.1025667,0.186980609 Z M32.7750747,8.78808864 L31.1086486,8.78808864 L31.1086486,2.56163435 L32.7750747,2.56163435 L32.7750747,8.78808864 Z" id="Shape"></path>
                    <path d="M36.5214926,3.68351801 C36.2538914,3.68351801 36.0349449,3.74584488 35.8524894,3.87049861 C35.670034,3.99515235 35.5240697,4.15720222 35.4085146,4.35041551 C35.2929595,4.5498615 35.2138955,4.76177285 35.1652407,4.99861496 C35.1165859,5.23545706 35.0922585,5.47229917 35.0922585,5.70290859 C35.0922585,5.92728532 35.1165859,6.15789474 35.1652407,6.38850416 C35.2138955,6.61911357 35.2868776,6.83102493 35.3963509,7.01800554 C35.4997423,7.20498615 35.6457066,7.36080332 35.828162,7.48545706 C36.0106175,7.60387812 36.229564,7.66620499 36.4850015,7.66620499 C36.8864035,7.66620499 37.1904958,7.55401662 37.4094423,7.3234072 C37.622307,7.09279778 37.7621895,6.78739612 37.8169261,6.40096953 L39.4286156,6.40096953 C39.3191424,7.2299169 39.0089681,7.85941828 38.4859293,8.28947368 C37.9689723,8.72576177 37.3060509,8.93767313 36.4971652,8.93767313 C36.0410267,8.93767313 35.6274611,8.8566482 35.2443047,8.70083102 C34.8611483,8.54501385 34.5388104,8.32686981 34.277291,8.04639889 C34.0096897,7.76592798 33.8029069,7.42936288 33.6508607,7.04293629 C33.5048964,6.6565097 33.4258324,6.22645429 33.4258324,5.75900277 C33.4258324,5.27908587 33.4927327,4.83033241 33.6326152,4.41897507 C33.7724977,4.00761773 33.9731986,3.64612188 34.2407999,3.34695291 C34.5084012,3.04778393 34.8307391,2.81094183 35.2138955,2.64265928 C35.5970519,2.47437673 36.0349449,2.38711911 36.5275745,2.38711911 C36.8864035,2.38711911 37.2330688,2.43698061 37.5675704,2.53047091 C37.902072,2.62396122 38.2000825,2.77354571 38.4616019,2.97299169 C38.7231213,3.17243767 38.935986,3.41551247 39.1001959,3.70844875 C39.2644057,4.00138504 39.3617153,4.35041551 39.3799608,4.74930748 L37.7439439,4.74930748 C37.6466344,4.03878116 37.2330688,3.68351801 36.5214926,3.68351801" id="Path"></path>
                    <path d="M40.3530564,3.47783934 C40.5233481,3.2098338 40.7422946,2.99792244 41.0098959,2.84210526 C41.2774972,2.6800554 41.5755077,2.56786704 41.9100093,2.49930748 C42.2445109,2.43074792 42.5790125,2.39958449 42.9135141,2.39958449 C43.2176064,2.39958449 43.5277806,2.42451524 43.8440367,2.46814404 C44.1542109,2.51177285 44.4461396,2.59903047 44.7015772,2.72368421 C44.9630966,2.85457064 45.1698794,3.02908587 45.3340893,3.25969529 C45.4982991,3.49030471 45.583445,3.78947368 45.583445,4.16966759 L45.583445,7.41066482 C45.583445,7.69113573 45.5956087,7.95914127 45.6320998,8.21468144 C45.662509,8.47022161 45.7172456,8.6634349 45.7963097,8.79432133 L44.1055561,8.79432133 C44.0751469,8.70083102 44.0508195,8.60110803 44.0264921,8.50138504 C44.0082466,8.40166205 43.9960829,8.30193906 43.9839192,8.19598338 C43.7163179,8.47645429 43.4061437,8.67590028 43.0412329,8.78808864 C42.6824039,8.90027701 42.3114112,8.95637119 41.9343367,8.95637119 C41.642408,8.95637119 41.3748067,8.91897507 41.125451,8.85041551 C40.8760952,8.78185596 40.6571487,8.6634349 40.4686115,8.51385042 C40.2800742,8.36426593 40.1341099,8.17105263 40.0307185,7.93421053 C39.9273271,7.70360111 39.8725905,7.42313019 39.8725905,7.10526316 C39.8725905,6.75 39.9334089,6.4632964 40.0550459,6.23268698 C40.1766828,6.00207756 40.3348108,5.82132964 40.5233481,5.68421053 C40.7179672,5.54709141 40.9369137,5.44736842 41.1801876,5.37880886 C41.4295433,5.31024931 41.6788991,5.25415512 41.9282548,5.216759 C42.1776106,5.17936288 42.4269663,5.14196676 42.6702402,5.1232687 C42.9135141,5.09833795 43.1263787,5.06094183 43.314916,5.01731302 C43.5034533,4.96745152 43.6494176,4.89889197 43.7588908,4.80540166 C43.8683641,4.71191136 43.9231007,4.58102493 43.910937,4.40027701 C43.910937,4.2132964 43.8805278,4.0699446 43.8257912,3.95775623 C43.7649727,3.85180055 43.6859087,3.76454294 43.5885991,3.70221607 C43.4912896,3.6398892 43.3757345,3.60249307 43.2480157,3.58379501 C43.1202969,3.56509695 42.9804144,3.55263158 42.8283682,3.55263158 C42.4999485,3.55263158 42.238429,3.62742382 42.0498918,3.77077562 C41.8613545,3.91412742 41.7518812,4.15720222 41.721472,4.49376731 L40.0611277,4.49376731 C40.0854551,4.07617729 40.1827647,3.73961219 40.3530564,3.47783934 M43.6494176,5.8898892 C43.5460262,5.92728532 43.4304711,5.95844875 43.3088341,5.97714681 C43.1871972,6.00207756 43.0594784,6.02077562 42.9256778,6.03947368 C42.7918771,6.05817175 42.6580765,6.07686981 42.5242758,6.10180055 C42.3965571,6.1267313 42.2749201,6.15789474 42.1532832,6.19529086 C42.0316462,6.23891967 41.922173,6.28878116 41.8370271,6.35734072 C41.7457994,6.42590028 41.6728172,6.51315789 41.6180806,6.61288089 C41.563344,6.71883657 41.5390166,6.84972299 41.5390166,7.01177285 C41.5390166,7.16135734 41.563344,7.29224377 41.6180806,7.39819945 C41.6728172,7.50415512 41.7457994,7.58518006 41.843109,7.64750693 C41.9343367,7.7098338 42.0438099,7.74722992 42.1715287,7.77216066 C42.2992475,7.79709141 42.4269663,7.80955679 42.5607669,7.80955679 C42.8891867,7.80955679 43.1446243,7.7534626 43.3270797,7.64127424 C43.5095351,7.52908587 43.6433357,7.39196676 43.7284816,7.23614958 C43.8136275,7.08033241 43.8683641,6.91828255 43.8866096,6.76246537 C43.9048552,6.60041551 43.9170189,6.47576177 43.9170189,6.37603878 L43.9170189,5.74030471 C43.8440367,5.80886427 43.752809,5.85872576 43.6494176,5.8898892" id="Shape"></path>
                    <path d="M50.7226059,7.9965374 C50.5279868,8.33310249 50.2725492,8.57617729 49.9502113,8.72576177 C49.6339553,8.87534626 49.2751263,8.9501385 48.8737244,8.9501385 C48.4175858,8.9501385 48.0222657,8.86288089 47.6756005,8.68213296 C47.3289352,8.50138504 47.0491702,8.25831025 46.8241418,7.9466759 C46.5991135,7.64127424 46.4349036,7.28601108 46.3193485,6.88088643 C46.2037934,6.48199446 46.1490568,6.06440443 46.1490568,5.62811634 C46.1490568,5.21052632 46.2037934,4.80540166 46.3193485,4.41897507 C46.4349036,4.03254848 46.5991135,3.68351801 46.8241418,3.39058172 C47.0491702,3.09141274 47.3289352,2.85457064 47.6634368,2.67382271 C47.9979384,2.49307479 48.3932584,2.40581717 48.8372333,2.40581717 C49.1960623,2.40581717 49.5427276,2.48684211 49.8650655,2.64265928 C50.1874034,2.79847645 50.4489228,3.02908587 50.6374601,3.33448753 L50.6617874,3.33448753 L50.6617874,0.20567867 L52.3282136,0.20567867 L52.3282136,8.8067867 L50.7408515,8.8067867 L50.7408515,8.00900277 L50.7226059,8.00900277 L50.7226059,7.9965374 Z M50.6496238,4.91759003 C50.600969,4.68074792 50.521905,4.46883657 50.4063499,4.28808864 C50.2907948,4.10734072 50.1448304,3.96398892 49.9684569,3.84556787 C49.7860014,3.7333795 49.5609731,3.67728532 49.28729,3.67728532 C49.0136068,3.67728532 48.7824966,3.7333795 48.5939594,3.84556787 C48.4054221,3.95775623 48.2533759,4.10734072 48.1439027,4.29432133 C48.0283476,4.48130194 47.9492836,4.68698061 47.894547,4.9300554 C47.8458922,5.16689751 47.8154829,5.4099723 47.8154829,5.67174515 C47.8154829,5.91481994 47.8398103,6.15166205 47.9006288,6.39473684 C47.9553654,6.63781163 48.0465931,6.84972299 48.1621482,7.0367036 C48.2837852,7.22368421 48.4358314,7.37950139 48.6182868,7.49168975 C48.8007422,7.6101108 49.0257705,7.66620499 49.2812081,7.66620499 C49.5548912,7.66620499 49.7860014,7.6101108 49.9684569,7.49792244 C50.1509123,7.38573407 50.2968766,7.23614958 50.4124317,7.04293629 C50.521905,6.85595568 50.600969,6.63781163 50.6496238,6.40096953 C50.6982785,6.15789474 50.7226059,5.90858726 50.7226059,5.65304709 C50.7226059,5.40373961 50.6982785,5.15443213 50.6496238,4.91759003" id="Shape"></path>
                    <path d="M53.5567467,3.47783934 C53.7270384,3.2098338 53.945985,2.99792244 54.2135862,2.84210526 C54.4811875,2.6800554 54.779198,2.56786704 55.1136996,2.49930748 C55.4482012,2.43074792 55.7827028,2.39958449 56.1172044,2.39958449 C56.4212968,2.39958449 56.731471,2.42451524 57.047727,2.46814404 C57.3639831,2.51177285 57.6498299,2.59903047 57.9052675,2.72368421 C58.1667869,2.85457064 58.3735697,3.02908587 58.5377796,3.25969529 C58.7019895,3.49030471 58.7871353,3.78947368 58.7871353,4.16966759 L58.7871353,7.41066482 C58.7871353,7.69113573 58.8053809,7.95914127 58.8357901,8.21468144 C58.8661994,8.47022161 58.920936,8.6634349 59,8.79432133 L57.3092465,8.79432133 C57.2788372,8.70083102 57.2545098,8.60110803 57.2301825,8.50138504 C57.2119369,8.40166205 57.1997732,8.30193906 57.1876095,8.19598338 C56.9200082,8.47645429 56.609834,8.67590028 56.2449232,8.78808864 C55.8860942,8.90027701 55.5151015,8.95637119 55.138027,8.95637119 C54.8460983,8.95637119 54.5784971,8.91897507 54.3291413,8.85041551 C54.0797856,8.78185596 53.8608391,8.6634349 53.6723018,8.51385042 C53.4837646,8.36426593 53.3378002,8.17105263 53.2344088,7.93421053 C53.1310174,7.70360111 53.0762808,7.42313019 53.0762808,7.10526316 C53.0762808,6.75 53.1370993,6.4632964 53.2587362,6.23268698 C53.3803732,6.00207756 53.5385012,5.82132964 53.7270384,5.68421053 C53.9155757,5.54709141 54.1406041,5.44736842 54.383878,5.37880886 C54.6332337,5.31024931 54.8765076,5.25415512 55.1319452,5.216759 C55.3813009,5.17936288 55.6306566,5.14196676 55.8739305,5.1232687 C56.1172044,5.09833795 56.3300691,5.06094183 56.5186063,5.01731302 C56.7071436,4.96745152 56.8531079,4.89889197 56.9625812,4.80540166 C57.0720544,4.71191136 57.1207092,4.58102493 57.1146274,4.40027701 C57.1146274,4.2132964 57.0842181,4.0699446 57.0294815,3.95775623 C56.968663,3.85180055 56.889599,3.76454294 56.7922895,3.70221607 C56.6949799,3.6398892 56.5794248,3.60249307 56.451706,3.58379501 C56.3239872,3.56509695 56.1841047,3.55263158 56.0320586,3.55263158 C55.7036388,3.55263158 55.4421194,3.62742382 55.2535821,3.77077562 C55.0650448,3.91412742 54.9555716,4.15720222 54.9251624,4.49376731 L53.2526544,4.49376731 C53.2891454,4.07617729 53.386455,3.73961219 53.5567467,3.47783934 M56.8591898,5.8898892 C56.7557984,5.92728532 56.6402433,5.95844875 56.5186063,5.97714681 C56.3969694,6.00207756 56.2692506,6.02077562 56.13545,6.03947368 C56.0016493,6.05817175 55.8678487,6.07686981 55.734048,6.10180055 C55.6063292,6.1267313 55.4846923,6.15789474 55.3630554,6.19529086 C55.2414184,6.23891967 55.138027,6.28878116 55.0467993,6.35734072 C54.9555716,6.42590028 54.8825894,6.51315789 54.8278528,6.61288089 C54.7731162,6.71883657 54.7487888,6.84972299 54.7487888,7.01177285 C54.7487888,7.16135734 54.7731162,7.29224377 54.8278528,7.39819945 C54.8825894,7.50415512 54.9555716,7.58518006 55.0528811,7.64750693 C55.1441089,7.7098338 55.2535821,7.74722992 55.3813009,7.77216066 C55.5090197,7.79709141 55.6367385,7.80955679 55.7705391,7.80955679 C56.0989589,7.80955679 56.3543965,7.7534626 56.53077,7.64127424 C56.7132254,7.52908587 56.8470261,7.39196676 56.9321719,7.23614958 C57.0173178,7.08033241 57.0720544,6.91828255 57.0903,6.76246537 C57.1085455,6.60041551 57.1207092,6.47576177 57.1207092,6.37603878 L57.1207092,5.74030471 C57.047727,5.80886427 56.9625812,5.85872576 56.8591898,5.8898892" id="Shape"></path>
                </g>
            </g>
        </g>
    </g>
</svg>