<?xml version="1.0" encoding="iso-8859-1"?>
<!-- Uploaded to: SVG Repo, www.svgrepo.com, Generator: SVG Repo Mixer Tools -->
<svg fill="#000000" height="800px" width="800px" version="1.1" id="Layer_1" xmlns="http://www.w3.org/2000/svg" xmlns:xlink="http://www.w3.org/1999/xlink" 
	 viewBox="0 0 511.999 511.999" xml:space="preserve">
<g>
	<g>
		<path d="M497.22,101.781c-62.757,0-255.452,0-318.248,0c-9.9,0-17.017,9.587-14.131,19.069l47.473,155.982
			c1.894,6.221,7.625,10.461,14.127,10.461c40.978,0,182.079,0,223.308,0c6.495,0,12.237-4.247,14.127-10.459L511.35,120.85
			C514.236,111.372,507.132,101.781,497.22,101.781z"/>
	</g>
</g>
<g>
	<g>
		<path d="M427.959,390.6c-10.863,0-20.798,4.019-28.422,10.636l-49.16-22.386l70.526-32.117h30.836
			c9.238,0,16.728-7.49,16.728-16.728c0-9.238-7.49-16.728-16.728-16.728H193l-81.221-266.87
			c-2.145-7.044-8.642-11.858-16.004-11.858H16.728C7.49,34.549,0,42.038,0,51.277s7.49,16.728,16.728,16.728h66.654l81.221,266.87
			c2.145,7.044,8.642,11.858,16.004,11.858h18.514l70.526,32.117l-48.641,22.15c-7.587-6.476-17.416-10.399-28.15-10.399
			c-23.945,0-43.425,19.48-43.425,43.425c0,23.945,19.48,43.426,43.425,43.426c23.944,0,43.425-19.48,43.425-43.426
			c0-1.065-0.052-2.117-0.128-3.163l73.857-33.633l74.622,33.981c-0.06,0.931-0.102,1.868-0.102,2.814
			c0,23.945,19.48,43.426,43.425,43.426c23.944,0,43.425-19.48,43.425-43.426C471.383,410.08,451.904,390.6,427.959,390.6z
			 M192.858,443.994c-5.498,0-9.969-4.472-9.969-9.97c0-5.497,4.472-9.969,9.969-9.969s9.969,4.472,9.969,9.969
			C202.826,439.522,198.354,443.994,192.858,443.994z M310.012,360.467l-30.163-13.735h60.324L310.012,360.467z M427.959,443.994
			c-5.498,0-9.969-4.472-9.969-9.97c0-5.497,4.472-9.969,9.969-9.969c5.497,0,9.969,4.472,9.969,9.969
			C437.928,439.522,433.457,443.994,427.959,443.994z"/>
	</g>
</g>
</svg>