<svg xmlns="http://www.w3.org/2000/svg" width="25.428" height="26.029" viewBox="0 0 25.428 26.029">
  <g id="g8" transform="translate(-622.269 2225.501)">
    <g id="g10" transform="translate(622.264 -2225.501)">
      <path id="path14" d="M630.687-2201.169l6.766-9.831.964-1.4,7.851-11.407h-3.377l-6.349,9.225-.964,1.4-8.268,12.013Zm-4.773-.96,8.522-12.381.964-1.4,6.1-8.856.505-.734H649.5l-1.827,2.655-8.1,11.777-.964,1.4-6.513,9.463-.505.733h-7.491l1.827-2.655" transform="translate(-624.086 2225.501)" fill="#492824"/>
      <path id="path16" d="M623.227-1409.6l-.964,1.4,1.142,1.329,8.764,10.2h2.161l-9.962-11.594-1.142-1.33" transform="translate(-608.897 1422.698)" fill="#492824"/>
      <path id="path18" d="M1430.543-2225.5l9.447,10.991,1.142,1.328.964-1.4-1.142-1.329-6.4-7.449-1.85-2.142h-2.161" transform="translate(-1429.641 2225.501)" fill="#492824"/>
    </g>
  </g>
</svg>
