<?xml version="1.0" encoding="UTF-8"?>
<svg width="75px" height="75px" viewBox="0 0 75 75" version="1.1" xmlns="http://www.w3.org/2000/svg" xmlns:xlink="http://www.w3.org/1999/xlink">
    <!-- Generator: Sketch 49 (51002) - http://www.bohemiancoding.com/sketch -->
    <title>icon-images</title>
    <desc>Created with Sketch.</desc>
    <defs></defs>
    <g id="icon-images" stroke="none" stroke-width="1" fill="none" fill-rule="evenodd">
        <g id="Group-3-Copy-2" transform="translate(26.000000, 26.000000)">
            <g id="ic_photo_library">
                <g id="Icon-24px">
                    <polygon id="Shape" points="0 0 25 0 25 25 0 25"></polygon>
                    <path d="M22.9166667,16.6666667 L22.9166667,4.16666667 C22.9166667,3.02083333 21.9791667,2.08333333 20.8333333,2.08333333 L8.33333333,2.08333333 C7.1875,2.08333333 6.25,3.02083333 6.25,4.16666667 L6.25,16.6666667 C6.25,17.8125 7.1875,18.75 8.33333333,18.75 L20.8333333,18.75 C21.9791667,18.75 22.9166667,17.8125 22.9166667,16.6666667 L22.9166667,16.6666667 Z M11.4583333,12.5 L13.5729167,15.3229167 L16.6666667,11.4583333 L20.8333333,16.6666667 L8.33333333,16.6666667 L11.4583333,12.5 L11.4583333,12.5 Z M2.08333333,6.25 L2.08333333,20.8333333 C2.08333333,21.9791667 3.02083333,22.9166667 4.16666667,22.9166667 L18.75,22.9166667 L18.75,20.8333333 L4.16666667,20.8333333 L4.16666667,6.25 L2.08333333,6.25 L2.08333333,6.25 Z" id="Shape" fill="#FFF8E8"></path>
                </g>
            </g>
        </g>
    </g>
</svg>