<?xml version="1.0" encoding="UTF-8"?>
<svg width="159px" height="28px" viewBox="0 0 159 28" version="1.1" xmlns="http://www.w3.org/2000/svg" xmlns:xlink="http://www.w3.org/1999/xlink">
    <!-- Generator: Sketch 49 (51002) - http://www.bohemiancoding.com/sketch -->
    <title>logo-anthropologic</title>
    <desc>Created with Sketch.</desc>
    <defs>
        <polygon id="path-1" points="0 0.258490909 11.91696 0.258490909 11.91696 13.5311273 0 13.5311273"></polygon>
        <polygon id="path-3" points="0.459968 0.0400714286 15.572288 0.0400714286 15.572288 16.8790571 0.459968 16.8790571"></polygon>
        <polygon id="path-5" points="0.430857143 0.421696552 12.8669048 0.421696552 12.8669048 18 0.430857143 18"></polygon>
        <polygon id="path-7" points="0 22 153 22 153 0 0 0"></polygon>
    </defs>
    <g id="logo-anthropologic" stroke="none" stroke-width="1" fill="none" fill-rule="evenodd">
        <g id="Page-1" transform="translate(3.000000, 3.000000)">
            <g id="Group-3" transform="translate(0.000000, 4.000000)">
                <mask id="mask-2" fill="white">
                    <use xlink:href="#path-1"></use>
                </mask>
                <g id="Clip-2"></g>
                <path d="M4.80816,11.0754 C6.40236,11.0754 7.53276,9.28021818 7.53276,7.7434 L7.53276,7.44367273 L7.01316,7.44367273 C5.46696,7.44367273 3.00696,7.66449091 3.00696,9.43485455 C3.00696,10.2774 3.58476,11.0754 4.80816,11.0754 M7.10616,5.28067273 L7.47996,5.28067273 L7.47996,5.1814 C7.47996,3.36521818 6.80076,2.69321818 5.27976,2.69321818 C4.73796,2.69321818 3.68076,2.84403636 3.68076,3.53703636 L3.68076,4.21030909 L0.91536,4.21030909 L0.91536,2.86949091 C0.91536,0.502218182 4.05636,0.258490909 5.30016,0.258490909 C9.28596,0.258490909 10.45896,2.46730909 10.45896,5.30103636 L10.45896,10.0285818 C10.45896,10.3792182 10.65036,10.5745818 10.98096,10.5745818 L11.91696,10.5745818 L11.91696,13.2364909 L9.24336,13.2364909 C8.13816,13.2364909 7.71696,12.5924909 7.71696,11.8428545 C7.71696,11.5189455 7.74216,11.2949455 7.74216,11.2949455 L7.69476,11.2949455 C7.69476,11.2949455 6.77796,13.5311273 4.08396,13.5311273 C1.94976,13.5311273 -0.00024,12.1215818 -0.00024,9.57930909 C-0.00024,5.6014 5.16396,5.28067273 7.10616,5.28067273" id="Fill-1" fill="#F5F5F5" mask="url(#mask-2)"></path>
            </g>
            <path d="M14.5445381,7.53635695 C14.5445381,7.16219662 14.3437672,6.99137043 13.9968656,6.99137043 L13,6.99137043 L13,4.30022064 L15.9073658,4.30022064 C17.0230421,4.30022064 17.5713499,4.81843589 17.5713499,5.71909782 L17.5713499,6.08879627 C17.5713499,6.36798235 17.5224279,6.63760726 17.5224279,6.63760726 L17.5713499,6.63760726 C18.1209285,5.5693062 19.4856622,4 22.0505739,4 C24.8505655,4 26.4662629,5.4717823 26.4662629,8.83221378 L26.4662629,13.7868105 C26.4662629,14.1373866 26.6670338,14.3330718 27.0139354,14.3330718 L28,14.3330718 L28,17 L24.9941548,17 C23.8079546,17 23.3117455,16.5040941 23.3117455,15.3089483 L23.3117455,9.47663643 C23.3117455,7.93728855 22.9133805,6.89002206 21.3237325,6.89002206 C19.6387818,6.89002206 18.369986,7.95832312 17.9207929,9.47663643 C17.7448007,10.0044128 17.6755475,10.5755332 17.6755475,11.1727874 L17.6755475,17 L14.5445381,17 L14.5445381,7.53635695 Z" id="Fill-4" fill="#F5F5F5"></path>
            <path d="M29.6587808,6.8703595 L28,6.8703595 L28,4.40304346 L29.7317723,4.40304346 L29.7317723,1 L32.8716996,1 L32.8716996,4.40304346 L35.7965281,4.40304346 L35.7965281,6.8703595 L32.8716996,6.8703595 L32.8716996,11.9082659 C32.8716996,13.9624848 34.5388777,14.2547823 35.4192975,14.2547823 C35.7693985,14.2547823 36,14.2053358 36,14.2053358 L36,16.9236396 C36,16.9236396 35.5930561,17 35.0142915,17 C33.2218006,17 29.6587808,16.4836287 29.6587808,12.3044635 L29.6587808,6.8703595 Z" id="Fill-6" fill="#F5F5F5"></path>
            <g id="Group-10" transform="translate(35.000000, 0.000000)">
                <mask id="mask-4" fill="white">
                    <use xlink:href="#path-3"></use>
                </mask>
                <g id="Clip-9"></g>
                <path d="M2.007488,3.11573571 C2.007488,2.76480714 1.805888,2.59723571 1.456448,2.59723571 L0.459968,2.59723571 L0.459968,0.03995 L3.479488,0.03995 C4.658368,0.03995 5.185728,0.533557143 5.185728,1.62641429 L5.185728,5.87398571 C5.185728,6.46655714 5.134528,6.89277143 5.134528,6.89277143 L5.185728,6.89277143 C5.782208,5.73130714 7.359808,4.49637857 9.561408,4.49637857 C12.410688,4.49637857 14.011328,5.89827143 14.011328,9.09912857 L14.011328,13.81845 C14.011328,14.1529857 14.216128,14.3387714 14.563008,14.3387714 L15.572288,14.3387714 L15.572288,16.8790571 L12.539968,16.8790571 C11.361088,16.8790571 10.860608,16.4073071 10.860608,15.2689143 L10.860608,9.71295 C10.860608,8.2467 10.438208,7.24977143 8.836928,7.24977143 C7.160768,7.24977143 5.855808,8.28980714 5.379008,9.76273571 C5.239488,10.2326643 5.185728,10.7596643 5.185728,11.3285571 L5.185728,16.8790571 L2.007488,16.8790571 L2.007488,3.11573571 Z" id="Fill-8" fill="#F5F5F5" mask="url(#mask-4)"></path>
            </g>
            <path d="M52.5190347,7.44405387 C52.5190347,7.06624418 52.3199501,6.89375186 51.9760766,6.89375186 L51,6.89375186 L51,4.17635409 L53.8314957,4.17635409 C54.930518,4.17635409 55.4897025,4.65392613 55.4897025,5.73135954 L55.4897025,6.48890979 C55.4897025,6.96390732 55.4422717,7.29022676 55.4422717,7.29022676 L55.4897025,7.29022676 C56.0513834,5.45781761 57.54171,4 59.4464323,4 C59.7141668,4 60,4.04955936 60,4.04955936 L60,7.18917715 C60,7.18917715 59.687331,7.14347955 59.249844,7.14347955 C57.9348866,7.14347955 56.4183482,7.92291316 55.8647805,9.83255768 C55.6862908,10.4600951 55.5895569,11.1661551 55.5895569,11.9237053 L55.5895569,17 L52.5190347,17 L52.5190347,7.44405387 Z" id="Fill-11" fill="#F5F5F5"></path>
            <path d="M66.9926319,14.3717039 C69.0723537,14.3717039 70.8016109,12.8123022 70.8016109,10.5043628 C70.8016109,8.2101352 69.0723537,6.63265893 66.9926319,6.63265893 C64.9378976,6.63265893 63.2086403,8.2101352 63.2086403,10.5043628 C63.2086403,12.8123022 64.9378976,14.3717039 66.9926319,14.3717039 M66.9926319,4 C70.8996385,4 74,6.70745038 74,10.5043628 C74,14.326829 70.8996385,17 66.9926319,17 C63.1106128,17 60,14.326829 60,10.5043628 C60,6.70745038 63.1106128,4 66.9926319,4" id="Fill-13" fill="#F5F5F5"></path>
            <path d="M81.6611269,14.641381 C83.3951268,14.641381 84.8447507,13.2249123 84.8447507,10.7001524 C84.8447507,8.28832725 83.5672657,6.71489844 81.7115705,6.71489844 C80.0860244,6.71489844 78.5512769,7.91570664 78.5512769,10.7307788 C78.5512769,12.6966077 79.6005044,14.641381 81.6611269,14.641381 Z M75.5265505,7.53989579 C75.5265505,7.16536103 75.332973,6.9943639 74.9855425,6.9943639 L74,6.9943639 L74,4.30052107 L76.7857497,4.30052107 C77.9440616,4.30052107 78.3608521,4.8192549 78.3608521,5.51983269 L78.3608521,6.0175109 L78.4112958,6.0175109 C78.4112958,6.0175109 79.476287,4 82.4007567,4 C85.8075936,4 88,6.71489844 88,10.6586792 C88,14.6924249 85.5345674,17.3084258 82.2336621,17.3084258 C79.7385939,17.3084258 78.6332478,15.6450321 78.6332478,15.6450321 L78.5834347,15.6450321 C78.5834347,15.6450321 78.6332478,16.0903903 78.6332478,16.7367339 L78.6332478,22 L75.5265505,22 L75.5265505,7.53989579 Z" id="Fill-15" fill="#F5F5F5"></path>
            <path d="M95.9951974,14.3717039 C98.076339,14.3717039 99.7995243,12.8123022 99.7995243,10.5043628 C99.7995243,8.2101352 98.076339,6.63265893 95.9951974,6.63265893 C93.9377487,6.63265893 92.2043178,8.2101352 92.2043178,10.5043628 C92.2043178,12.8123022 93.9377487,14.3717039 95.9951974,14.3717039 M95.9951974,4 C99.8987788,4 103,6.70745038 103,10.5043628 C103,14.326829 99.8987788,17 95.9951974,17 C92.1076248,17 89,14.326829 89,10.5043628 C89,6.70745038 92.1076248,4 95.9951974,4" id="Fill-17" fill="#F5F5F5"></path>
            <path d="M104.627482,1.95703936 C104.627482,1.61972549 104.424373,1.42352641 104.062565,1.42352641 L103,1.42352641 L103,0 L104.803814,0 C105.910789,0 106.360763,0.433247169 106.360763,1.47427822 L106.360763,15.0435796 C106.360763,15.4025558 106.572362,15.5715222 106.928292,15.5715222 L108,15.5715222 L108,17 L106.187696,17 C105.089211,17 104.627482,16.5630393 104.627482,15.5244839 L104.627482,1.95703936 Z" id="Fill-19" fill="#F5F5F5"></path>
            <path d="M115.514405,15.4943646 C118.136828,15.4943646 120.294517,13.3243296 120.294517,10.4393704 C120.294517,7.62704042 118.136828,5.53089778 115.514405,5.53089778 C112.868183,5.53089778 110.714251,7.62704042 110.714251,10.4393704 C110.714251,13.3243296 112.868183,15.4943646 115.514405,15.4943646 M115.491231,4 C119.085084,4 122,6.75991061 122,10.4393704 C122,14.18767 119.085084,17 115.514405,17 C111.914916,17 109,14.18767 109,10.4393704 C109,6.75991061 111.914916,4 115.491231,4" id="Fill-21" fill="#F5F5F5"></path>
            <g id="Group-25" transform="translate(123.000000, 4.000000)">
                <mask id="mask-6" fill="white">
                    <use xlink:href="#path-5"></use>
                </mask>
                <g id="Clip-24"></g>
                <path d="M9.7227619,6.58204138 C9.7227619,3.01742069 8.03090476,1.92624828 5.876,1.92624828 C3.50504762,1.92624828 2.13014286,3.6468 2.13014286,6.55721379 C2.13014286,9.46886897 3.69757143,11.3551448 6.09514286,11.3551448 C8.03090476,11.3551448 9.7227619,10.170869 9.7227619,6.58204138 M5.71195238,0.421696552 C8.97309524,0.421696552 9.75433333,2.50721379 9.75433333,2.50721379 L9.79828571,2.50721379 L9.79828571,2.04355862 C9.79828571,1.17583448 10.1833333,0.715282759 11.1824762,0.715282759 L12.8669048,0.715282759 L12.8669048,2.14783448 L11.8776667,2.14783448 C11.5396667,2.14783448 11.349619,2.3148 11.349619,2.67542069 L11.349619,12.6163862 C11.349619,16.5019034 8.49766667,18.0002483 5.48538095,18.0002483 C4.11357143,18.0002483 2.70585714,17.6371448 1.51852381,17.0319724 L2.14871429,15.6484552 C2.14871429,15.6484552 3.64804762,16.5019034 5.44390476,16.5019034 C7.81547619,16.5019034 9.6967619,15.3828 9.6967619,12.6685241 L9.6967619,11.6009379 C9.6967619,11.144731 9.7227619,10.7270069 9.7227619,10.7270069 L9.67633333,10.7270069 C8.95266667,12.0571448 7.73933333,12.834869 5.86052381,12.834869 C2.58885714,12.834869 0.430857143,10.2391448 0.430857143,6.58204138 C0.430857143,2.91686897 2.43966667,0.421696552 5.71195238,0.421696552" id="Fill-23" fill="#F5F5F5" mask="url(#mask-6)"></path>
            </g>
            <mask id="mask-8" fill="white">
                <use xlink:href="#path-7"></use>
            </mask>
            <g id="Clip-27"></g>
            <path d="M137.578294,2.07896749 L139.266945,2.07896749 L139.266945,0 L137.578294,0 L137.578294,2.07896749 Z M137.630534,6.79331562 C137.630534,6.45538282 137.425493,6.26784869 137.068304,6.26784869 L136,6.26784869 L136,4.83875196 L137.815332,4.83875196 C138.899961,4.83875196 139.369466,5.27199913 139.369466,6.30931663 L139.369466,15.0435796 C139.369466,15.4025558 139.569283,15.5715222 139.929084,15.5715222 L141,15.5715222 L141,17 L139.187933,17 C138.092203,17 137.630534,16.5630393 137.630534,15.5189136 L137.630534,6.79331562 Z" id="Fill-26" fill="#F5F5F5" mask="url(#mask-8)"></path>
            <path d="M148.327822,4 C149.682607,4 152.594785,4.59303342 152.594785,6.64117761 L152.594785,7.74956277 L151.067906,7.74956277 L151.067906,7.03653323 C151.067906,5.99825107 149.328044,5.50563545 148.327822,5.50563545 C145.739085,5.50563545 143.670902,7.50388651 143.670902,10.5145258 C143.670902,13.5744267 145.839168,15.4760494 148.3681,15.4760494 C150.826852,15.4760494 152.232288,13.7177905 152.232288,13.7177905 L153,14.9764866 C153,14.9764866 151.384022,17 148.294258,17 C144.722386,17 142,14.3600855 142,10.5145258 C142,6.71380684 144.740083,4 148.327822,4" id="Fill-28" fill="#F5F5F5" mask="url(#mask-8)"></path>
        </g>
    </g>
</svg>